<svg width="160" height="161" viewBox="0 0 160 161" fill="none" xmlns="http://www.w3.org/2000/svg">
<g clip-path="url(#clip0)">
<path d="M16.6795 116.028L15.6608 116.661L14.4621 115.332C14.3626 115.584 14.2051 115.839 13.993 116.096C13.7792 116.352 13.524 116.575 13.2239 116.761C12.3235 117.321 11.4229 117.448 10.5224 117.145C9.62198 116.841 8.83596 116.141 8.16245 115.045C7.98986 114.764 7.85479 114.498 7.75724 114.243C7.26197 113.994 6.84926 113.974 6.51721 114.18C6.31647 114.304 6.22455 114.491 6.23956 114.741C6.25456 114.993 6.41778 115.368 6.72731 115.871L7.66906 117.404C8.26564 118.374 8.51141 119.236 8.41008 119.994C8.30878 120.752 7.8698 121.372 7.09689 121.853C6.10636 122.469 5.09145 122.532 4.05027 122.046C3.00909 121.559 2.01106 120.541 1.05805 118.988C0.322662 117.793 -0.0281491 116.748 0.00561882 115.856C0.0393867 114.964 0.446478 114.276 1.22501 113.793C1.76155 113.459 2.31872 113.349 2.89466 113.463C3.47059 113.576 4.01838 113.896 4.53802 114.423C4.49113 114.108 4.53428 113.799 4.66935 113.491C4.80442 113.183 5.0014 112.95 5.25841 112.79C5.58484 112.586 5.91876 112.507 6.25832 112.552C6.59787 112.598 6.99183 112.733 7.43832 112.961C7.3539 112.384 7.44394 111.818 7.70847 111.262C7.97485 110.706 8.4007 110.243 8.99166 109.878C9.93903 109.289 10.8583 109.133 11.7494 109.41C12.6404 109.687 13.4265 110.381 14.1112 111.492C14.2651 111.741 14.4077 112.013 14.5408 112.306C14.674 112.601 14.764 112.827 14.8129 112.988L16.6795 116.028ZM2.34311 115.4C1.94352 115.649 1.74655 116.02 1.75405 116.518C1.76155 117.014 1.96603 117.592 2.36938 118.248C2.99408 119.264 3.60378 119.931 4.20035 120.249C4.79504 120.565 5.33345 120.576 5.81183 120.278C6.19078 120.043 6.3765 119.739 6.37087 119.366C6.36337 118.994 6.13263 118.436 5.67676 117.695L4.80817 116.283C4.47987 115.747 4.09342 115.4 3.6488 115.241C3.2042 115.083 2.76896 115.136 2.34311 115.4ZM10.1022 111.686C9.55444 112.025 9.22055 112.429 9.10047 112.897C8.98038 113.363 9.08169 113.861 9.40809 114.391C10.0723 115.472 10.9784 115.655 12.1264 114.942C12.6948 114.589 13.0513 114.182 13.1958 113.723C13.3402 113.265 13.2426 112.764 12.9087 112.216C12.5767 111.677 12.1733 111.362 11.6968 111.274C11.2166 111.185 10.6876 111.323 10.1022 111.686Z" fill="white"/>
<path d="M20.7898 120.925C21.06 121.274 21.2569 121.582 21.3845 121.846L19.6473 122.932C19.516 122.639 19.3471 122.363 19.1427 122.097C18.6062 121.404 17.9476 121.018 17.1654 120.94C16.3831 120.862 15.6327 121.105 14.9142 121.665L10.6782 124.977L9.3387 123.246L17.4449 116.906L18.4936 118.263L17.2404 119.609L17.308 119.698C18.0002 119.59 18.6568 119.643 19.2777 119.856C19.8987 120.068 20.4014 120.426 20.7898 120.925Z" fill="white"/>
<path d="M24.7463 132.924C23.5475 134.103 22.3094 134.714 21.0355 134.757C19.7618 134.8 18.5874 134.27 17.5144 133.166C16.8427 132.475 16.4056 131.713 16.2011 130.88C15.9966 130.046 16.0454 129.201 16.3475 128.347C16.6495 127.492 17.1842 126.689 17.9496 125.934C19.1408 124.764 20.3677 124.158 21.634 124.115C22.9003 124.071 24.0747 124.609 25.1628 125.725C26.2021 126.793 26.6824 127.975 26.6035 129.269C26.5247 130.567 25.9057 131.785 24.7463 132.924ZM19.5197 127.551C17.8238 129.218 17.5894 130.679 18.8144 131.94C20.0263 133.186 21.4802 132.975 23.1742 131.307C24.8514 129.659 25.0803 128.207 23.8589 126.951C23.2173 126.293 22.5363 126.029 21.816 126.159C21.0956 126.291 20.3302 126.755 19.5197 127.551Z" fill="white"/>
<path d="M26.4346 141.216C25.2227 140.239 24.5849 139.14 24.523 137.922C24.4611 136.703 24.9601 135.428 26.0219 134.097C27.1025 132.743 28.2638 131.968 29.5038 131.77C30.7438 131.573 31.9876 131.977 33.2333 132.983C34.0775 133.663 34.7134 134.435 35.1374 135.296L33.524 136.258C33.0288 135.396 32.5466 134.776 32.0795 134.399C30.6931 133.281 29.2637 133.646 27.7873 135.496C27.0669 136.399 26.6973 137.216 26.6804 137.95C26.6635 138.682 26.988 139.318 27.6541 139.855C28.412 140.466 29.2805 140.854 30.2579 141.023L29.0667 142.516C28.6183 142.45 28.1924 142.318 27.7854 142.116C27.3764 141.912 26.9262 141.613 26.4346 141.216Z" fill="white"/>
<path d="M34.7922 147.074C33.4377 146.222 32.6273 145.16 32.3571 143.885C32.087 142.61 32.3871 141.277 33.2538 139.885C34.1431 138.456 35.1974 137.554 36.4149 137.183C37.6324 136.811 38.8612 137.015 40.0994 137.794C41.2494 138.516 41.9379 139.438 42.1667 140.56C42.3956 141.68 42.1292 142.855 41.3638 144.085L40.7391 145.09L34.9385 141.441C34.4357 142.307 34.2575 143.103 34.4039 143.831C34.5501 144.559 35.0136 145.167 35.7958 145.66C36.3098 145.983 36.8201 146.235 37.3229 146.418C37.8275 146.599 38.4035 146.737 39.0544 146.831L38.1127 148.342C37.5274 148.273 36.974 148.14 36.458 147.938C35.9403 147.734 35.385 147.446 34.7922 147.074ZM39.2232 139.201C38.6361 138.831 38.047 138.722 37.4599 138.872C36.8727 139.023 36.3211 139.438 35.8071 140.112L39.7579 142.597C40.1969 141.868 40.3657 141.211 40.2607 140.628C40.1576 140.047 39.8104 139.57 39.2232 139.201Z" fill="white"/>
<path d="M50.061 143.138C50.4568 143.33 50.7701 143.516 50.999 143.697L49.924 145.445C49.6782 145.243 49.4044 145.068 49.1023 144.923C48.3163 144.542 47.5546 144.49 46.8192 144.77C46.0839 145.049 45.5192 145.602 45.1234 146.425L42.7934 151.286L40.8273 150.333L45.2866 141.032L46.8248 141.777L46.2977 143.542L46.3971 143.591C46.9694 143.184 47.5809 142.938 48.23 142.851C48.8829 142.767 49.4926 142.861 50.061 143.138Z" fill="white"/>
<path d="M50.4493 154.607L48.4175 153.809L52.1545 144.192L54.1863 144.99L50.4493 154.607ZM53.0232 141.596C53.1657 141.23 53.374 140.988 53.6498 140.869C53.9255 140.751 54.2482 140.764 54.6158 140.909C54.9742 141.051 55.2125 141.258 55.3363 141.533C55.4582 141.809 55.4488 142.129 55.3063 142.493C55.1712 142.84 54.9648 143.076 54.689 143.198C54.4132 143.321 54.0943 143.312 53.7379 143.17C53.3683 143.025 53.1245 142.814 53.0025 142.535C52.8806 142.256 52.8881 141.945 53.0232 141.596Z" fill="white"/>
<path d="M57.8651 157.239C56.3305 156.797 55.2574 156.001 54.6477 154.852C54.038 153.701 53.9592 152.338 54.4094 150.757C54.871 149.135 55.6364 147.978 56.7038 147.282C57.7713 146.585 59.0076 146.441 60.4126 146.844C61.7165 147.219 62.632 147.914 63.161 148.928C63.69 149.941 63.7557 151.146 63.358 152.54L63.0334 153.679L56.4543 151.783C56.2086 152.755 56.2573 153.569 56.5969 154.227C56.9364 154.886 57.5499 155.342 58.4372 155.599C59.0207 155.766 59.5797 155.869 60.1144 155.903C60.649 155.936 61.2418 155.908 61.8909 155.817L61.4032 157.531C60.8216 157.63 60.2551 157.654 59.7016 157.605C59.1501 157.556 58.5367 157.434 57.8651 157.239ZM59.9568 148.443C59.2909 148.251 58.6962 148.31 58.1727 148.619C57.6493 148.928 57.2328 149.479 56.9252 150.269L61.4069 151.561C61.6283 150.739 61.6095 150.06 61.3488 149.53C61.088 148.996 60.6247 148.636 59.9568 148.443Z" fill="white"/>
<path d="M71.8845 156.938C71.7231 157.933 71.2372 158.637 70.4306 159.05C69.6238 159.463 68.547 159.559 67.2038 159.336C65.8531 159.114 64.8025 158.731 64.0503 158.184L64.3542 156.313C65.4554 157.062 66.5191 157.52 67.5453 157.69C68.8716 157.909 69.5995 157.614 69.7308 156.809C69.772 156.551 69.7346 156.325 69.6163 156.129C69.4982 155.932 69.2862 155.714 68.9785 155.476C68.6728 155.236 68.2393 154.95 67.6785 154.62C66.5848 153.973 65.87 153.388 65.5323 152.866C65.1946 152.344 65.084 151.719 65.2021 150.995C65.3447 150.124 65.8043 149.503 66.5829 149.135C67.3614 148.768 68.3519 148.685 69.5544 148.883C70.7457 149.079 71.8338 149.507 72.8168 150.167L71.8544 151.683C70.8339 151.05 69.9522 150.671 69.2074 150.548C68.0706 150.361 67.4496 150.593 67.3445 151.244C67.292 151.563 67.3971 151.859 67.6578 152.129C67.9186 152.398 68.5151 152.809 69.4475 153.36C70.2317 153.824 70.7907 154.222 71.1266 154.554C71.4605 154.886 71.6912 155.244 71.8169 155.627C71.9426 156.008 71.9651 156.445 71.8845 156.938Z" fill="white"/>
<path d="M81.0412 160.411L78.8594 160.355L79.1258 150.033L81.3075 150.09L81.0412 160.411ZM79.0676 147.296C79.077 146.904 79.1933 146.606 79.411 146.399C79.6304 146.193 79.9381 146.095 80.3339 146.104C80.7185 146.115 81.0131 146.229 81.2213 146.446C81.4295 146.663 81.5289 146.969 81.5176 147.359C81.5083 147.732 81.3939 148.023 81.1744 148.232C80.9549 148.442 80.6547 148.542 80.2702 148.53C79.8743 148.52 79.5723 148.404 79.364 148.185C79.1576 147.966 79.0583 147.67 79.0676 147.296Z" fill="white"/>
<path d="M93.4644 159.849L91.2783 160.008L90.8261 153.677C90.7705 152.883 90.5676 152.302 90.2223 151.932C89.877 151.565 89.3575 151.406 88.6653 151.456C87.744 151.522 87.0914 151.843 86.7048 152.421C86.3183 152.998 86.1701 153.929 86.2619 155.214L86.6299 160.344L84.4539 160.5L83.7164 150.203L85.4198 150.081L85.8215 151.408L85.9318 151.401C86.2055 150.888 86.6164 150.479 87.1663 150.169C87.7162 149.862 88.3352 149.682 89.0274 149.631C91.4846 149.454 92.8034 150.622 92.9836 153.136L93.4644 159.849Z" fill="white"/>
<path d="M110.456 155.942L108.365 156.6L106.474 150.524C106.239 149.769 105.923 149.25 105.523 148.969C105.123 148.686 104.622 148.642 104.02 148.83C103.218 149.083 102.709 149.531 102.497 150.175C102.285 150.818 102.37 151.751 102.75 152.975L104.277 157.884L102.195 158.539L99.1276 148.685L100.758 148.172L101.452 149.371L101.559 149.337C101.685 148.783 101.966 148.296 102.403 147.878C102.84 147.459 103.369 147.153 103.99 146.957C105.496 146.484 106.656 146.686 107.469 147.565L107.611 147.519C107.748 146.94 108.039 146.433 108.479 145.994C108.92 145.554 109.48 145.23 110.16 145.015C111.331 144.647 112.275 144.675 112.995 145.101C113.714 145.528 114.264 146.35 114.643 147.566L116.642 153.99L114.56 154.645L112.669 148.568C112.435 147.814 112.115 147.295 111.714 147.014C111.312 146.733 110.809 146.688 110.207 146.877C109.397 147.131 108.885 147.57 108.667 148.196C108.45 148.823 108.506 149.66 108.832 150.712L110.456 155.942Z" fill="white"/>
<path d="M114.188 140.504C114.021 140.149 113.991 139.831 114.094 139.547C114.197 139.264 114.428 139.038 114.787 138.868C115.133 138.705 115.448 138.673 115.732 138.773C116.015 138.872 116.238 139.1 116.406 139.455C116.563 139.793 116.591 140.104 116.49 140.39C116.388 140.677 116.163 140.902 115.816 141.066C115.459 141.235 115.138 141.269 114.852 141.166C114.569 141.062 114.348 140.842 114.188 140.504ZM121.814 151.329L119.841 152.262L115.465 142.922L117.439 141.986L121.814 151.329Z" fill="white"/>
<path d="M132.661 145.196L130.781 146.327L127.538 140.88C127.131 140.198 126.69 139.77 126.217 139.599C125.742 139.427 125.208 139.519 124.613 139.877C123.821 140.355 123.382 140.937 123.296 141.628C123.21 142.318 123.495 143.215 124.153 144.321L126.781 148.734L124.909 149.862L119.632 141.003L121.097 140.121L122.052 141.124L122.148 141.066C122.163 140.485 122.345 139.932 122.697 139.408C123.05 138.883 123.523 138.444 124.118 138.086C126.232 136.813 127.932 137.258 129.22 139.421L132.661 145.196Z" fill="white"/>
<path d="M141.255 138.541L140.171 137.68L140.084 137.75C140.148 138.314 140.047 138.88 139.782 139.447C139.517 140.014 139.105 140.524 138.546 140.977C137.578 141.762 136.661 142.106 135.794 142.009C134.929 141.911 134.102 141.371 133.312 140.387L129.096 135.134L130.809 133.745L134.787 138.699C135.28 139.313 135.775 139.674 136.272 139.777C136.77 139.881 137.285 139.717 137.82 139.284C138.533 138.705 138.886 138.065 138.876 137.365C138.867 136.665 138.458 135.811 137.65 134.805L134.438 130.8L136.143 129.418L142.593 137.454L141.255 138.541Z" fill="white"/>
<path d="M146.671 131.153C147.046 130.772 147.362 130.333 147.617 129.834L148.786 130.997C148.69 131.244 148.534 131.528 148.317 131.851C148.099 132.173 147.848 132.481 147.559 132.773C146.104 134.25 144.602 134.218 143.054 132.677L139.12 128.763L138.133 129.765L137.447 129.082L137.939 127.444L136.916 125.376L137.864 124.415L139.486 126.031L141.544 123.941L142.718 125.111L140.66 127.2L144.568 131.087C144.941 131.458 145.311 131.639 145.673 131.63C146.035 131.621 146.371 131.459 146.671 131.153Z" fill="white"/>
<path d="M153.48 125.957C152.483 127.212 151.338 127.898 150.048 128.019C148.757 128.14 147.474 127.687 146.198 126.661C144.888 125.607 144.121 124.45 143.895 123.191C143.667 121.933 144.011 120.73 144.925 119.583C145.773 118.519 146.763 117.939 147.896 117.838C149.029 117.738 150.16 118.142 151.286 119.049L152.207 119.79L147.928 125.16C148.725 125.761 149.491 126.031 150.226 125.971C150.962 125.908 151.618 125.516 152.194 124.792C152.573 124.317 152.883 123.837 153.118 123.355C153.357 122.872 153.56 122.312 153.726 121.673L155.111 122.787C154.976 123.364 154.779 123.9 154.522 124.394C154.265 124.888 153.917 125.409 153.48 125.957ZM146.215 120.622C145.782 121.165 145.605 121.74 145.688 122.344C145.77 122.948 146.114 123.547 146.722 124.14L149.635 120.483C148.965 119.96 148.337 119.716 147.747 119.753C147.159 119.788 146.648 120.079 146.215 120.622Z" fill="white"/>
<path d="M158.617 112.848C159.467 113.383 159.925 114.104 159.992 115.013C160.058 115.922 159.73 116.956 159.008 118.115C158.282 119.281 157.522 120.107 156.732 120.592L155.133 119.587C156.246 118.854 157.08 118.046 157.63 117.159C158.344 116.014 158.357 115.226 157.668 114.794C157.448 114.655 157.225 114.604 156.999 114.638C156.773 114.672 156.49 114.785 156.152 114.975C155.815 115.166 155.385 115.458 154.864 115.848C153.848 116.612 153.034 117.05 152.424 117.161C151.815 117.272 151.2 117.135 150.581 116.744C149.836 116.275 149.446 115.609 149.41 114.745C149.374 113.882 149.68 112.931 150.328 111.891C150.967 110.864 151.781 110.021 152.768 109.363L153.787 110.841C152.809 111.541 152.121 112.212 151.721 112.856C151.11 113.836 151.084 114.502 151.639 114.853C151.912 115.025 152.222 115.042 152.571 114.905C152.92 114.768 153.526 114.374 154.392 113.723C155.121 113.176 155.702 112.81 156.137 112.629C156.573 112.449 156.989 112.372 157.389 112.404C157.789 112.435 158.199 112.582 158.617 112.848Z" fill="white"/>
<path d="M75.6815 64.3979C75.6815 62.9986 74.3514 61.4709 71.5524 61.4709C68.0199 61.4709 66.1739 64.1811 66.1739 66.5574C66.1739 66.565 67.6541 67.1118 71.5355 67.1118C74.2088 67.1118 75.6815 66.0538 75.6815 64.3979Z" fill="#FFD300"/>
<path d="M44.8851 61.4634C42.0936 61.4634 39.8724 63.6549 39.8724 67.8775C39.8724 71.8361 42.0448 73.641 44.8851 73.641C47.4609 73.641 49.6426 72.1002 49.6426 67.5513C49.6426 63.1268 47.6316 61.4634 44.8851 61.4634Z" fill="#FFD300"/>
<path d="M82.3412 0.500244C44.448 0.500244 13.7285 31.3826 13.7285 69.4769C13.7285 107.571 44.448 138.453 82.3412 138.453C120.234 138.453 150.954 107.571 150.954 69.4769C150.954 31.3826 120.234 0.500244 82.3412 0.500244ZM44.7256 91.7612C41.0018 91.7612 36.565 89.9191 34.6384 87.4065C34.6253 87.3895 35.3381 84.1911 37.9157 84.1911C38.9325 84.1911 39.6904 84.7568 40.7072 85.2469C41.8535 85.7997 43.0878 86.2543 44.7556 86.2543C48.2243 86.2543 49.5601 83.9515 49.5601 80.4964V77.5072C49.0704 77.9373 47.0781 79.4064 43.6413 79.4064C37.0227 79.4064 33.3683 73.7957 33.3683 67.7814C33.3683 61.2881 37.3398 55.9528 44.9151 55.9528C52.6629 55.9528 56.0754 61.2542 56.0754 69.0035C56.0754 70.3915 56.0754 78.9613 56.0754 78.9613C56.0772 87.4708 52.0457 91.7612 44.7256 91.7612ZM71.5673 76.1871C73.0381 76.1871 74.1825 75.8381 75.1468 75.4346C76.0697 75.0498 76.9064 74.6105 78.0339 74.6105C80.1819 74.6105 80.9717 77.645 80.9642 77.6544C79.8142 79.2895 75.2743 81.6488 71.1378 81.6488C63.7876 81.6488 59.5384 76.4266 59.5384 69.3637C59.5384 60.1019 65.5529 55.9528 71.3047 55.9528C77.3529 55.9528 81.497 59.2871 81.497 64.3735C81.497 67.9493 79.5366 71.4024 71.4116 71.4024C67.6278 71.4024 65.9769 70.9196 65.9769 70.9196C65.9769 75.3629 69.515 76.1871 71.5673 76.1871ZM94.6813 81.6846C88.416 81.6846 85.1436 77.1621 85.1436 70.2596L85.1966 53.3785C85.1966 51.2323 85.7651 49.6952 86.9036 48.7654C88.0421 47.8356 89.6968 47.3698 91.8678 47.3698C91.8316 47.6207 91.7962 47.9601 91.7608 48.3901C91.7246 48.7843 91.6985 49.3105 91.68 49.9724C91.6615 50.6344 91.6514 51.5019 91.6514 52.5731L91.7044 55.9528H98.8556C98.8556 57.5615 98.4109 58.8495 97.5217 59.8152C96.6324 60.7808 95.3701 61.2636 93.7339 61.2636H91.7061L91.6539 68.8809C91.6539 70.3821 91.8391 71.8136 92.1061 72.8339C92.3722 73.8523 93.8072 76.2248 96.608 76.2248C98.2627 76.2248 99.2648 75.9853 99.8181 75.8401C99.904 76.1305 100.023 76.5925 100.023 77.4883C100.024 80.0174 97.7735 81.6846 94.6813 81.6846ZM103.889 49.1709C104.217 48.5485 104.673 48.062 105.256 47.713C105.838 47.366 106.44 47.1906 107.061 47.1906C107.609 47.1906 108.138 47.3359 108.648 47.6301C109.232 47.9242 109.669 48.3448 109.961 48.8955C110.254 49.4462 110.398 50.0328 110.398 50.6552C110.398 51.3152 110.236 51.9395 109.907 52.526C109.142 53.8103 108.082 54.4516 106.733 54.4516C106.15 54.4516 105.602 54.3233 105.091 54.0668C104.544 53.7367 104.125 53.3068 103.832 52.773C103.542 52.2431 103.395 51.6641 103.395 51.0417C103.395 50.344 103.559 49.7216 103.889 49.1709ZM109.864 81.6506C106.292 81.794 103.461 79.346 103.461 74.9084L103.516 62.5008C103.516 60.3545 104.084 58.8175 105.223 57.8878C106.361 56.958 108.033 56.4921 110.239 56.4921C110.204 56.743 110.168 57.0824 110.132 57.5124C110.097 57.9065 110.07 58.4328 110.053 59.0948C110.035 59.7567 110.027 60.6243 110.027 61.6974V73.8787C110.027 75.5421 110.916 76.553 112.299 76.553C113.016 76.553 113.381 76.4567 113.907 76.3134C113.907 76.3134 114.067 77.1055 114.067 78.1013C114.064 80.4814 112.114 81.5601 109.864 81.6506ZM127.397 61.8954C123.69 62.2084 123.352 64.9185 123.352 67.0289V75.9627C123.352 77.0358 123.36 77.9033 123.38 78.5653C123.397 79.2273 123.424 79.7553 123.461 80.1476C123.495 80.5757 123.533 81.1924 123.568 81.4074C121.398 81.4074 119.765 81.3583 118.362 80.2872C117.074 79.3027 116.792 77.3055 116.792 75.1592V68.185C116.792 65.7899 117.139 63.8322 117.832 62.3121C118.525 60.792 119.422 59.602 120.527 58.744C121.629 57.8858 122.867 57.305 124.236 57.0013C125.605 56.6977 126.966 56.5449 128.318 56.5449H130.933C131.202 57.1296 131.314 58.1216 131.314 58.6497C131.312 60.9203 129.481 61.72 127.397 61.8954Z" fill="#FFD300"/>
<path d="M81.4989 64.3753C81.4989 59.2889 77.3549 55.9546 71.3066 55.9546C65.5529 55.9546 59.5404 60.1055 59.5404 69.3656C59.5404 76.4284 63.7876 81.6506 71.1397 81.6506C75.2763 81.6506 79.8162 79.2932 80.9661 77.6562C80.9736 77.6468 80.1838 74.6123 78.0359 74.6123C76.9065 74.6123 76.0717 75.0498 75.1487 75.4364C74.1844 75.8381 73.0401 76.1889 71.5693 76.1889C69.517 76.1889 65.9788 75.3648 65.9788 70.9234C65.9788 70.9234 67.6316 71.4062 71.4136 71.4062C79.5385 71.4042 81.4989 67.9493 81.4989 64.3753ZM71.5524 61.471C74.3533 61.471 75.6814 62.9986 75.6814 64.398C75.6814 66.0538 74.2088 67.1118 71.5355 67.1118C67.6541 67.1118 66.1739 66.565 66.1739 66.5574C66.1739 64.183 68.0199 61.471 71.5524 61.471Z" fill="#5D3EBC"/>
<path d="M96.6097 76.2266C93.8088 76.2266 92.3739 73.854 92.1078 72.8356C91.8417 71.8153 91.6556 70.3839 91.6556 68.8827L91.7078 61.2653H93.7364C95.3718 61.2653 96.6366 60.7825 97.5234 59.817C98.4126 58.8514 98.8573 57.5632 98.8573 55.9545H91.7061L91.6539 52.5749C91.6539 51.5018 91.6632 50.6362 91.6817 49.9742C91.6985 49.3122 91.7246 48.7842 91.7625 48.3919C91.7962 47.9638 91.8341 47.6243 91.8695 47.3716C89.6985 47.3716 88.0446 47.8374 86.9053 48.7672C85.7667 49.697 85.1983 51.234 85.1983 53.3802L85.1461 70.2613C85.1461 77.1639 88.4177 81.6864 94.6838 81.6864C97.7735 81.6864 100.026 80.0192 100.026 77.492C100.026 76.5962 99.9082 76.1342 99.8215 75.8437C99.2682 75.987 98.2644 76.2266 96.6097 76.2266Z" fill="#5D3EBC"/>
<path d="M105.091 54.0669C105.602 54.3234 106.15 54.4516 106.733 54.4516C108.082 54.4516 109.14 53.8104 109.907 52.526C110.236 51.9395 110.398 51.3153 110.398 50.6552C110.398 50.0328 110.253 49.4463 109.961 48.8956C109.669 48.3449 109.232 47.9243 108.648 47.6301C108.138 47.3378 107.609 47.1907 107.061 47.1907C106.44 47.1907 105.838 47.3642 105.256 47.7131C104.671 48.062 104.217 48.5486 103.889 49.1709C103.56 49.7216 103.395 50.3459 103.395 51.0419C103.395 51.6642 103.542 52.2432 103.832 52.7732C104.125 53.305 104.544 53.7349 105.091 54.0669Z" fill="#5D3EBC"/>
<path d="M112.299 76.5511C110.915 76.5511 110.027 75.5383 110.027 73.8768V61.6955C110.027 60.6224 110.035 59.7567 110.054 59.0928C110.071 58.4309 110.097 57.9028 110.132 57.5105C110.168 57.0824 110.204 56.7429 110.239 56.4902C108.033 56.4902 106.361 56.9561 105.223 57.8859C104.084 58.8156 103.516 60.3527 103.516 62.4989L103.461 74.9065C103.461 79.3442 106.292 81.7921 109.864 81.6487C112.114 81.5583 114.065 80.4813 114.065 78.0975C114.065 77.1018 113.905 76.3097 113.905 76.3097C113.382 76.4548 113.014 76.5511 112.299 76.5511Z" fill="#5D3EBC"/>
<path d="M128.316 56.5448C126.963 56.5448 125.603 56.6976 124.234 57.0012C122.865 57.3049 121.629 57.8857 120.525 58.7439C119.422 59.6019 118.524 60.792 117.829 62.312C117.137 63.8321 116.79 65.7898 116.79 68.1849V75.1591C116.79 77.3053 117.071 79.3044 118.36 80.287C119.765 81.3582 121.398 81.4073 123.566 81.4073C123.531 81.1923 123.495 80.5774 123.459 80.1474C123.424 79.7533 123.397 79.2271 123.379 78.5651C123.36 77.9031 123.351 77.0357 123.351 75.9626V67.0288C123.351 64.9166 123.688 62.2083 127.395 61.8953C129.48 61.7199 131.309 60.9202 131.309 58.6477C131.309 58.1196 131.197 57.1276 130.928 56.543H128.316V56.5448Z" fill="#5D3EBC"/>
<path d="M44.917 55.9546C37.3437 55.9546 33.3703 61.2881 33.3703 67.7832C33.3703 73.7976 37.0247 79.4082 43.6432 79.4082C47.0801 79.4082 49.0723 77.9391 49.562 77.5091V80.4983C49.562 83.9534 48.2263 86.256 44.7576 86.256C43.0879 86.256 41.8535 85.7997 40.7091 85.2494C39.6924 84.7587 38.9345 84.1929 37.9177 84.1929C35.34 84.1929 34.6272 87.3912 34.6403 87.4081C36.567 89.9207 41.0037 91.7628 44.7276 91.7628C52.0458 91.7628 56.0792 87.4725 56.0792 78.9632C56.0792 78.9632 56.0792 70.3934 56.0792 69.0053C56.0773 61.256 52.6649 55.9546 44.917 55.9546ZM44.8851 73.641C42.0449 73.641 39.8725 71.8362 39.8725 67.8776C39.8725 63.6549 42.0936 61.4634 44.8851 61.4634C47.6316 61.4634 49.6427 63.1268 49.6427 67.5513C49.6427 72.1002 47.4609 73.641 44.8851 73.641Z" fill="#5D3EBC"/>
</g>
<defs>
<clipPath id="clip0">
<rect width="160" height="160" fill="white" transform="translate(0 0.500244)"/>
</clipPath>
</defs>
</svg>
