<svg width="160" height="48" viewBox="0 0 160 48" fill="none" xmlns="http://www.w3.org/2000/svg">
<rect y="0.000244141" width="160" height="48.0001" rx="8" fill="#000000"/>
<path d="M54.266 18H50.621V11.934H54.131V12.897H51.782V14.382H54.005V15.336H51.782V17.037H54.266V18Z" fill="white"/>
<path d="M60.0087 18H58.6677L58.0557 16.821C57.9237 16.563 57.7317 16.188 57.4797 15.696H57.4617C57.4017 15.846 57.2307 16.221 56.9487 16.821L56.3817 18H55.0587L56.8047 14.922L55.1217 11.934H56.4537L57.0657 13.149C57.2277 13.467 57.3867 13.803 57.5427 14.157H57.5607C57.7107 13.785 57.8607 13.449 58.0107 13.149L58.6137 11.934H59.9367L58.2177 14.895L60.0087 18Z" fill="white"/>
<path d="M65.1771 13.734C65.1771 14.322 65.0031 14.787 64.6551 15.129C64.2111 15.561 63.5781 15.777 62.7561 15.777C62.5461 15.777 62.3751 15.762 62.2431 15.732V18H61.0911V12.015C61.5711 11.931 62.1381 11.889 62.7921 11.889C63.5841 11.889 64.1781 12.054 64.5741 12.384C64.9761 12.714 65.1771 13.164 65.1771 13.734ZM64.0161 13.779C64.0161 13.461 63.9141 13.215 63.7101 13.041C63.5061 12.867 63.2181 12.78 62.8461 12.78C62.5941 12.78 62.3931 12.798 62.2431 12.834V14.823C62.3631 14.853 62.5311 14.868 62.7471 14.868C63.1431 14.868 63.4521 14.772 63.6741 14.58C63.9021 14.388 64.0161 14.121 64.0161 13.779Z" fill="white"/>
<path d="M69.9741 18H66.3921V11.934H67.5531V17.019H69.9741V18Z" fill="white"/>
<path d="M76.0446 14.904C76.0446 15.834 75.8046 16.59 75.3246 17.172C74.8146 17.79 74.1036 18.099 73.1916 18.099C72.3336 18.099 71.6526 17.793 71.1486 17.181C70.6806 16.611 70.4466 15.888 70.4466 15.012C70.4466 14.118 70.6926 13.374 71.1846 12.78C71.7066 12.15 72.4056 11.835 73.2816 11.835C74.1456 11.835 74.8296 12.138 75.3336 12.744C75.8076 13.308 76.0446 14.028 76.0446 14.904ZM74.8026 14.949C74.8026 14.391 74.6856 13.908 74.4516 13.5C74.1696 13.014 73.7676 12.771 73.2456 12.771C72.7116 12.771 72.3036 13.017 72.0216 13.509C71.7816 13.917 71.6616 14.409 71.6616 14.985C71.6616 15.549 71.7816 16.032 72.0216 16.434C72.3096 16.92 72.7176 17.163 73.2456 17.163C73.7796 17.163 74.1846 16.914 74.4606 16.416C74.6886 16.014 74.8026 15.525 74.8026 14.949Z" fill="white"/>
<path d="M81.5861 18H80.3891C80.2811 17.802 80.1461 17.325 79.9841 16.569C79.9001 16.179 79.7801 15.909 79.6241 15.759C79.4681 15.609 79.2401 15.534 78.9401 15.534H78.4361V18H77.2841V12.015C77.7581 11.931 78.3191 11.889 78.9671 11.889C79.8251 11.889 80.4461 12.051 80.8301 12.375C81.1841 12.663 81.3611 13.074 81.3611 13.608C81.3611 13.968 81.2501 14.289 81.0281 14.571C80.8301 14.823 80.5811 15.003 80.2811 15.111V15.138C80.6771 15.294 80.9531 15.684 81.1091 16.308C81.2711 16.95 81.3581 17.295 81.3701 17.343C81.4601 17.679 81.5321 17.898 81.5861 18ZM80.2001 13.707C80.2001 13.083 79.8281 12.771 79.0841 12.771C78.7901 12.771 78.5741 12.786 78.4361 12.816V14.679H79.0391C79.3991 14.679 79.6811 14.592 79.8851 14.418C80.0951 14.238 80.2001 14.001 80.2001 13.707Z" fill="white"/>
<path d="M86.3355 18H82.6905V11.934H86.2005V12.897H83.8515V14.382H86.0745V15.336H83.8515V17.037H86.3355V18Z" fill="white"/>
<path d="M91.14 18H89.979V11.934H91.14V18Z" fill="white"/>
<path d="M96.6564 12.915H94.9734V18H93.8124V12.915H92.1474V11.934H96.6564V12.915Z" fill="white"/>
<path d="M105.356 14.904C105.356 15.834 105.116 16.59 104.636 17.172C104.126 17.79 103.415 18.099 102.503 18.099C101.645 18.099 100.964 17.793 100.46 17.181C99.9916 16.611 99.7576 15.888 99.7576 15.012C99.7576 14.118 100.004 13.374 100.496 12.78C101.018 12.15 101.717 11.835 102.593 11.835C103.457 11.835 104.141 12.138 104.645 12.744C105.119 13.308 105.356 14.028 105.356 14.904ZM104.114 14.949C104.114 14.391 103.997 13.908 103.763 13.5C103.481 13.014 103.079 12.771 102.557 12.771C102.023 12.771 101.615 13.017 101.333 13.509C101.093 13.917 100.973 14.409 100.973 14.985C100.973 15.549 101.093 16.032 101.333 16.434C101.621 16.92 102.029 17.163 102.557 17.163C103.091 17.163 103.496 16.914 103.772 16.416C104 16.014 104.114 15.525 104.114 14.949Z" fill="white"/>
<path d="M111.365 18H110.159L108.683 15.426C108.251 14.664 107.9 13.965 107.63 13.329L107.603 13.338C107.645 14.058 107.666 14.928 107.666 15.948V18H106.595V11.934H107.918L109.376 14.445C109.742 15.081 110.075 15.759 110.375 16.479L110.393 16.47C110.327 15.768 110.294 14.922 110.294 13.932V11.934H111.365V18Z" fill="white"/>
<path d="M53.6116 31.8796L52.2225 36.0853H50.4366L54.98 22.7137H57.0629L61.6255 36.0853H59.7805L58.3522 31.8796H53.6116ZM57.9962 30.5304L56.6869 26.6815C56.3891 25.8089 56.1911 25.0154 55.9923 24.2418H55.9532C55.7544 25.0353 55.5365 25.8489 55.2786 26.6616L53.9693 30.5304H57.9962Z" fill="white"/>
<path d="M62.9563 29.6171C62.9563 28.3869 62.9164 27.3953 62.8765 26.4828H64.4437L64.5235 28.129H64.5634C64.9095 27.5378 65.4098 27.052 66.0109 26.7234C66.612 26.3949 67.2911 26.2361 67.9756 26.264C70.2964 26.264 72.0424 28.228 72.0424 31.1444C72.0424 34.5964 69.9395 36.3025 67.6778 36.3025C67.0972 36.3275 66.52 36.2018 66.0024 35.9377C65.4848 35.6736 65.0443 35.28 64.7239 34.7952H64.684V40.0124H62.9579L62.9563 29.6171ZM64.6824 32.1766C64.6871 32.4165 64.7138 32.6554 64.7622 32.8904C64.9075 33.4747 65.2443 33.9935 65.719 34.364C66.1936 34.7344 66.7787 34.9351 67.3808 34.9341C69.2258 34.9341 70.2972 33.426 70.2972 31.2242C70.2972 29.3002 69.2857 27.6532 67.4407 27.6532C66.8234 27.6703 66.2293 27.892 65.7517 28.2835C65.2741 28.675 64.9401 29.214 64.8021 29.8159C64.7321 30.0477 64.6921 30.2876 64.6832 30.5296L64.6824 32.1766Z" fill="white"/>
<path d="M73.3724 29.6171C73.3724 28.3868 73.3325 27.3953 73.2926 26.4828H74.8566L74.9364 28.129H74.9763C75.3223 27.5378 75.8227 27.0518 76.4238 26.7233C77.0249 26.3948 77.704 26.236 78.3885 26.264C80.7101 26.264 82.4553 28.228 82.4553 31.1443C82.4553 34.5964 80.3524 36.3025 78.0907 36.3025C77.5101 36.3276 76.9329 36.202 76.4152 35.9379C75.8976 35.6737 75.4572 35.2801 75.1368 34.7952H75.0969V40.0124H73.3708L73.3724 29.6171ZM75.0985 32.1766C75.1032 32.4165 75.1299 32.6554 75.1783 32.8903C75.3236 33.4747 75.6604 33.9935 76.1351 34.3639C76.6097 34.7344 77.1948 34.9351 77.7969 34.9341C79.6419 34.9341 80.7133 33.426 80.7133 31.2242C80.7133 29.3002 79.7017 27.6532 77.856 27.6532C77.2393 27.671 76.6461 27.8931 76.1693 28.2845C75.6924 28.6759 75.3591 29.2145 75.2214 29.8159C75.1514 30.0477 75.1114 30.2876 75.1025 30.5296L75.0985 32.1766Z" fill="white"/>
<path d="M94.3803 35.4906C93.0623 35.9643 91.674 36.2124 90.2736 36.2243C89.3604 36.3128 88.4389 36.2 87.5739 35.8941C86.7089 35.5881 85.9215 35.0964 85.267 34.4534C84.6126 33.8104 84.1069 33.0318 83.7857 32.1724C83.4645 31.313 83.3355 30.3936 83.4077 29.479C83.4277 25.4873 86.1652 22.5749 90.6488 22.5749C91.7904 22.5474 92.9252 22.7567 93.9819 23.1896L93.5652 24.5979C92.6346 24.1919 91.6262 23.9954 90.6112 24.0223C87.358 24.0223 85.2352 26.0461 85.2352 29.3992C85.2352 32.7922 87.2789 34.7952 90.3933 34.7952C91.177 34.8381 91.961 34.7165 92.695 34.4384V30.4466H89.9806V29.0655H94.3803V35.4906Z" fill="white"/>
<path d="M101.921 36.0837L101.782 34.8735H101.722C101.381 35.3276 100.937 35.694 100.426 35.9423C99.9156 36.1907 99.3532 36.3139 98.7855 36.3017C98.4079 36.3296 98.0286 36.2787 97.6716 36.1524C97.3147 36.0261 96.9878 35.827 96.7118 35.5678C96.4358 35.3086 96.2166 34.9949 96.0681 34.6465C95.9196 34.2982 95.8451 33.9228 95.8492 33.5442C95.8492 31.2226 97.9121 29.9516 101.622 29.9732V29.7768C101.661 29.4793 101.631 29.177 101.536 28.8926C101.44 28.6082 101.282 28.3492 101.072 28.1352C100.861 27.9212 100.605 27.7577 100.323 27.6572C100.04 27.5567 99.7383 27.5217 99.4402 27.5549C98.557 27.5581 97.6919 27.8054 96.9405 28.2695L96.5414 27.1191C97.4927 26.5462 98.5853 26.2506 99.6957 26.2656C102.632 26.2656 103.346 28.2695 103.346 30.1943V33.7869C103.333 34.5572 103.387 35.3273 103.505 36.0885L101.921 36.0837ZM101.663 31.1835C99.7579 31.1435 97.596 31.4813 97.596 33.3462C97.5779 33.568 97.6078 33.7911 97.6839 34.0002C97.76 34.2093 97.8804 34.3995 98.0368 34.5578C98.1932 34.7161 98.3819 34.8388 98.5901 34.9174C98.7983 34.9959 99.021 35.0286 99.243 35.0132C99.7504 35.0266 100.249 34.8781 100.666 34.5891C101.083 34.3002 101.398 33.8858 101.564 33.4061C101.626 33.2261 101.659 33.0376 101.663 32.8472V31.1835Z" fill="white"/>
<path d="M105.116 22H106.862V36.0861H105.116V22Z" fill="white"/>
<path d="M109.798 22H111.544V36.0861H109.798V22Z" fill="white"/>
<path d="M114.935 31.6025C114.897 32.0465 114.955 32.4935 115.107 32.9127C115.258 33.3318 115.499 33.7131 115.812 34.0301C116.125 34.3471 116.503 34.5922 116.921 34.7486C117.338 34.905 117.784 34.9688 118.229 34.9357C119.14 34.9644 120.047 34.7953 120.887 34.4399L121.185 35.6893C120.174 36.1106 119.086 36.3136 117.991 36.2849C115.038 36.2849 113.269 34.3409 113.269 31.4445C113.269 28.548 114.975 26.2664 117.773 26.2664C120.907 26.2664 121.741 29.0239 121.741 30.7898C121.737 31.0619 121.718 31.3336 121.681 31.6033L114.935 31.6025ZM120.054 30.3523C120.074 29.241 119.597 27.515 117.633 27.515C115.868 27.515 115.093 29.1412 114.955 30.3523H120.054Z" fill="white"/>
<path d="M123.388 29.4798C123.388 28.3485 123.368 27.3769 123.308 26.4844H124.836L124.896 28.3685H124.975C125.139 27.7819 125.485 27.2624 125.963 26.8846C126.44 26.5068 127.025 26.2901 127.634 26.2656C127.801 26.2635 127.968 26.2836 128.13 26.3255V27.9717C127.934 27.9291 127.735 27.909 127.535 27.9118C126.939 27.936 126.371 28.1771 125.94 28.5899C125.509 29.0027 125.244 29.5588 125.193 30.1536C125.144 30.4221 125.118 30.6942 125.114 30.9671V36.0837H123.388V29.4798Z" fill="white"/>
<path d="M131.702 26.4835L133.804 32.1574C134.022 32.7961 134.26 33.5465 134.419 34.1213H134.459C134.638 33.5457 134.836 32.812 135.074 32.1175L136.979 26.4835H138.824L136.205 33.3278C134.955 36.621 134.101 38.3071 132.912 39.3386C132.308 39.8954 131.569 40.2853 130.769 40.4698L130.332 39.0017C130.891 38.8181 131.41 38.5295 131.861 38.1514C132.495 37.6263 132.998 36.9607 133.329 36.2074C133.4 36.0778 133.447 35.9367 133.468 35.7907C133.453 35.6332 133.413 35.4791 133.349 35.334L129.798 26.4859L131.702 26.4835Z" fill="white"/>
<path d="M19.0359 8.80054C12.7737 8.80054 10.4832 11.091 10.4832 17.3533V30.6474C10.4832 36.9097 12.7737 39.2002 19.0359 39.2002H32.3261C38.5883 39.2002 40.8828 36.9097 40.8828 30.6474V17.3533C40.8828 11.091 38.5923 8.80054 32.3301 8.80054H19.0359Z" fill="#C51532"/>
<path d="M16.5035 24.0034H17.3099V27.9784H16.5035V26.3641H14.6825V27.9784H13.8762V24.0034H14.6825V25.6073H16.5035V24.0034ZM21.0462 26.2786C21.0462 26.9245 20.7268 27.2702 20.1424 27.2702C19.558 27.2702 19.2339 26.915 19.2339 26.2507V24.0058H18.4276V26.2786C18.4 26.5114 18.4246 26.7474 18.4997 26.9694C18.5748 27.1914 18.6984 27.3939 18.8616 27.5622C19.0247 27.7304 19.2234 27.8601 19.443 27.9419C19.6627 28.0237 19.8978 28.0555 20.1312 28.035C20.3686 28.0554 20.6075 28.0224 20.8304 27.9385C21.0533 27.8545 21.2547 27.7218 21.4196 27.5499C21.5846 27.378 21.709 27.1715 21.7838 26.9453C21.8585 26.7191 21.8817 26.479 21.8517 26.2427V24.001H21.0454L21.0462 26.2786ZM30.3661 26.7369L29.464 24.0034H28.8061L27.904 26.7369L27.0258 24.0058H26.1676L27.5535 27.9784H28.2209L29.1247 25.3686L30.0284 27.9784H30.7022L32.0842 24.0058H31.2483L30.3661 26.7369ZM33.5284 26.2675H34.995V25.5442H33.5284V24.7307H35.6576V24.0058H32.7324V27.9751H35.7342V27.2511H33.5284V26.2675ZM36.6954 27.9728H37.4938V24.0034H36.6954V27.9728ZM23.4428 27.1481L23.0812 27.976H22.2581L24.0088 24.0034H24.7202L26.4646 27.976H25.6191L25.2622 27.1481H23.4428ZM23.743 26.4296H24.9621L24.3505 25.0069L23.743 26.4296Z" fill="white"/>
<path d="M25.683 18.9427C24.3414 18.9413 23.0553 18.4077 22.1067 17.4591C21.1581 16.5105 20.6245 15.2243 20.623 13.8828H21.3415C21.3415 15.0353 21.7994 16.1406 22.6143 16.9555C23.4292 17.7704 24.5345 18.2282 25.687 18.2282C26.8394 18.2282 27.9447 17.7704 28.7596 16.9555C29.5746 16.1406 30.0324 15.0353 30.0324 13.8828H30.7509C30.7492 15.2257 30.2145 16.5129 29.2642 17.4617C28.3139 18.4105 27.0258 18.9432 25.683 18.9427Z" fill="white"/>
</svg>
