<svg width="160" height="48" viewBox="0 0 160 48" fill="none" xmlns="http://www.w3.org/2000/svg">
<path d="M10.274 47.9977C9.8606 47.9977 9.45717 47.9928 9.047 47.9843C8.1973 47.9741 7.34959 47.9057 6.51081 47.7796C5.7287 47.6551 4.97104 47.4234 4.26282 47.0921C3.56111 46.7636 2.92108 46.3329 2.36727 45.8165C1.80544 45.3061 1.3377 44.7141 0.982567 44.0641C0.623524 43.4098 0.375044 42.7085 0.245784 41.9846C0.106195 41.2067 0.0306713 40.4202 0.0198647 39.6317C0.0112621 39.3671 0 38.486 0 38.486V9.49853C0 9.49853 0.0119948 8.63092 0.0199325 8.37603C0.0302798 7.58884 0.105364 6.80353 0.244536 6.02689C0.374034 5.30099 0.622706 4.59765 0.981943 3.94122C1.33577 3.29161 1.80092 2.69922 2.35936 2.18702C2.91718 1.66996 3.55925 1.23702 4.26216 0.90399C4.96875 0.573822 5.72497 0.343734 6.50551 0.221434C7.34704 0.0941513 8.19769 0.025336 9.05034 0.0155657L10.2747 0.000244141H149.719L150.958 0.0161806C151.803 0.0254654 152.645 0.0936667 153.479 0.220204C154.268 0.344038 155.032 0.575732 155.746 0.907667C157.155 1.57881 158.3 2.64062 159.023 3.94428C159.377 4.59618 159.622 5.29378 159.75 6.01341C159.89 6.79643 159.969 7.58791 159.985 8.38155C159.989 8.73692 159.989 9.11864 159.989 9.49853C160 9.96909 160 10.417 160 10.8685V37.1306C160 37.5865 160 38.0313 159.989 38.4798C159.989 38.8879 159.989 39.2617 159.984 39.6464C159.968 40.4259 159.891 41.2033 159.752 41.9723C159.625 42.7014 159.378 43.4082 159.019 44.0678C158.662 44.7108 158.197 45.2977 157.641 45.8067C157.087 46.3259 156.446 46.7591 155.743 47.0897C155.03 47.4235 154.267 47.6561 153.479 47.7796C152.641 47.9063 151.793 47.9748 150.943 47.9843C150.546 47.9928 150.129 47.9977 149.725 47.9977L148.255 48.0002L10.274 47.9977Z" fill="black"/>
<path d="M29.9854 24.3762C29.9989 23.3289 30.2771 22.3019 30.7941 21.391C31.3111 20.48 32.0502 19.7147 32.9425 19.1661C32.3756 18.3565 31.6278 17.6903 30.7584 17.2203C29.8891 16.7503 28.9221 16.4894 27.9342 16.4585C25.8271 16.2374 23.7843 17.7194 22.7105 17.7194C21.6159 17.7194 19.9627 16.4805 18.1824 16.5171C17.0309 16.5543 15.9086 16.8892 14.925 17.4891C13.9413 18.089 13.1299 18.9334 12.5696 19.9402C10.1428 24.1419 11.953 30.317 14.2777 33.7133C15.4408 35.3764 16.8002 37.2342 18.5788 37.1683C20.3194 37.0961 20.9694 36.0584 23.0704 36.0584C25.1519 36.0584 25.7618 37.1683 27.5765 37.1264C29.4442 37.0961 30.6209 35.4559 31.7432 33.7771C32.5789 32.592 33.222 31.2823 33.6486 29.8965C32.5635 29.4375 31.6375 28.6694 30.9861 27.6877C30.3347 26.706 29.9867 25.5544 29.9854 24.3762Z" fill="white"/>
<path d="M26.5577 14.2249C27.576 13.0024 28.0777 11.4311 27.9562 9.84473C26.4004 10.0081 24.9633 10.7517 23.9312 11.9273C23.4266 12.5016 23.0401 13.1697 22.7939 13.8934C22.5476 14.6172 22.4464 15.3824 22.496 16.1453C23.2742 16.1533 24.0441 15.9846 24.7476 15.652C25.4511 15.3193 26.07 14.8314 26.5577 14.2249Z" fill="white"/>
<path d="M51.9869 32.9579H46.0473L44.6209 37.1697H42.1051L47.731 21.5872H50.3449L55.9708 37.1697H53.4121L51.9869 32.9579ZM46.6624 31.0144H51.3706L49.0496 24.179H48.9847L46.6624 31.0144Z" fill="white"/>
<path d="M68.1209 31.4898C68.1209 35.0203 66.2313 37.2885 63.3797 37.2885C62.6574 37.3263 61.939 37.1599 61.3068 36.8084C60.6746 36.4568 60.1542 35.9344 59.8052 35.3008H59.7512V40.928H57.4192V25.8087H59.6765V27.6983H59.7194C60.0845 27.0678 60.6137 26.5481 61.2507 26.1944C61.8877 25.8407 62.6086 25.6664 63.3368 25.6898C66.2202 25.6899 68.1209 27.9691 68.1209 31.4898ZM65.724 31.4898C65.724 29.1897 64.5353 27.6775 62.7217 27.6775C60.9399 27.6775 59.7414 29.2215 59.7414 31.4898C59.7414 33.7789 60.9399 35.3119 62.7217 35.3119C64.5353 35.3119 65.724 33.8108 65.724 31.4898Z" fill="white"/>
<path d="M80.6251 31.4898C80.6251 35.0202 78.7355 37.2885 75.884 37.2885C75.1616 37.3263 74.4432 37.1599 73.811 36.8084C73.1789 36.4568 72.6584 35.9344 72.3094 35.3008H72.2554V40.928H69.9234V25.8087H72.1807V27.6983H72.2236C72.5887 27.0678 73.1179 26.5481 73.7549 26.1944C74.3919 25.8407 75.1128 25.6664 75.841 25.6898C78.7245 25.6898 80.6251 27.9691 80.6251 31.4898ZM78.2282 31.4898C78.2282 29.1897 77.0395 27.6775 75.2259 27.6775C73.4441 27.6775 72.2457 29.2215 72.2457 31.4898C72.2457 33.7789 73.4441 35.3119 75.2259 35.3119C77.0395 35.3119 78.2282 33.8107 78.2282 31.4898H78.2282Z" fill="white"/>
<path d="M88.8894 32.8281C89.0622 34.3733 90.5634 35.3879 92.6147 35.3879C94.5803 35.3879 95.9944 34.3733 95.9944 32.98C95.9944 31.7705 95.1415 31.0463 93.122 30.55L91.1025 30.0635C88.2412 29.3723 86.9128 28.0342 86.9128 25.8627C86.9128 23.1741 89.2558 21.3274 92.5828 21.3274C95.8755 21.3274 98.1328 23.1741 98.2088 25.8627H95.8547C95.7138 24.3076 94.4283 23.369 92.5497 23.369C90.6712 23.369 89.3857 24.3187 89.3857 25.7009C89.3857 26.8026 90.2067 27.4509 92.2152 27.9471L93.932 28.3687C97.1291 29.1247 98.4575 30.409 98.4575 32.6883C98.4575 35.6036 96.1353 37.4294 92.4419 37.4294C88.9862 37.4294 86.653 35.6465 86.5022 32.828L88.8894 32.8281Z" fill="white"/>
<path d="M103.49 23.1201V25.8087H105.651V27.6554H103.49V33.9186C103.49 34.8916 103.923 35.345 104.873 35.345C105.129 35.3405 105.385 35.3225 105.64 35.291V37.1267C105.213 37.2065 104.779 37.2426 104.344 37.2345C102.044 37.2345 101.147 36.3706 101.147 34.1673V27.6554H99.4955V25.8087H101.147V23.1201H103.49Z" fill="white"/>
<path d="M106.902 31.49C106.902 27.9154 109.007 25.6692 112.29 25.6692C115.584 25.6692 117.68 27.9153 117.68 31.49C117.68 35.0743 115.595 37.3107 112.29 37.3107C108.986 37.3107 106.902 35.0743 106.902 31.49ZM115.304 31.49C115.304 29.0379 114.18 27.5907 112.29 27.5907C110.401 27.5907 109.278 29.0489 109.278 31.49C109.278 33.9518 110.401 35.388 112.29 35.388C114.18 35.388 115.303 33.9518 115.303 31.49H115.304Z" fill="white"/>
<path d="M119.602 25.8088H121.826V27.7425H121.88C122.031 27.1386 122.385 26.6049 122.882 26.2311C123.38 25.8573 123.991 25.6662 124.613 25.69C124.882 25.689 125.15 25.7182 125.412 25.777V27.9582C125.073 27.8546 124.719 27.807 124.364 27.8173C124.025 27.8036 123.688 27.8633 123.374 27.9924C123.061 28.1215 122.779 28.3169 122.548 28.5653C122.317 28.8136 122.143 29.1089 122.037 29.431C121.931 29.7531 121.896 30.0943 121.934 30.4311V37.1698H119.602L119.602 25.8088Z" fill="white"/>
<path d="M136.164 33.833C135.85 35.8954 133.842 37.3107 131.272 37.3107C127.967 37.3107 125.916 35.0964 125.916 31.5439C125.916 27.9803 127.978 25.6692 131.174 25.6692C134.317 25.6692 136.294 27.8284 136.294 31.2731V32.072H128.27V32.213C128.233 32.6311 128.285 33.0523 128.423 33.4486C128.562 33.8449 128.783 34.2073 129.072 34.5117C129.361 34.816 129.711 35.0554 130.1 35.2139C130.489 35.3724 130.906 35.4464 131.326 35.4309C131.877 35.4826 132.43 35.3549 132.903 35.067C133.375 34.7791 133.743 34.3463 133.95 33.833L136.164 33.833ZM128.281 30.4422H133.961C133.982 30.0663 133.925 29.6901 133.793 29.3372C133.662 28.9843 133.459 28.6624 133.197 28.3917C132.936 28.1209 132.621 27.9072 132.273 27.7638C131.924 27.6205 131.55 27.5507 131.174 27.5588C130.794 27.5565 130.418 27.6295 130.066 27.7735C129.715 27.9175 129.396 28.1296 129.127 28.3977C128.858 28.6658 128.644 28.9844 128.499 29.3354C128.354 29.6863 128.28 30.0625 128.281 30.4422V30.4422Z" fill="white"/>
<path d="M46.3702 9.85786C46.8591 9.82278 47.3497 9.89664 47.8066 10.0741C48.2635 10.2516 48.6753 10.5283 49.0123 10.8842C49.3494 11.2401 49.6032 11.6663 49.7556 12.1322C49.9079 12.5981 49.9549 13.092 49.8933 13.5783C49.8933 15.9703 48.6005 17.3453 46.3702 17.3453H43.6657V9.85786H46.3702ZM44.8286 16.2864H46.2403C46.5896 16.3073 46.9393 16.25 47.2637 16.1187C47.5881 15.9874 47.8792 15.7855 48.1157 15.5275C48.3522 15.2696 48.5283 14.9621 48.631 14.6276C48.7337 14.293 48.7605 13.9397 48.7095 13.5935C48.7568 13.2486 48.7273 12.8976 48.623 12.5655C48.5187 12.2334 48.3422 11.9284 48.1062 11.6725C47.8702 11.4166 47.5806 11.2161 47.258 11.0853C46.9354 10.9545 46.5879 10.8967 46.2403 10.916H44.8286V16.2864Z" fill="white"/>
<path d="M51.2069 14.5175C51.1714 14.1461 51.2139 13.7715 51.3317 13.4175C51.4494 13.0636 51.6398 12.7381 51.8907 12.4621C52.1416 12.1861 52.4474 11.9655 52.7886 11.8146C53.1297 11.6637 53.4986 11.5857 53.8716 11.5857C54.2447 11.5857 54.6136 11.6637 54.9547 11.8146C55.2958 11.9655 55.6016 12.1861 55.8525 12.4621C56.1034 12.7381 56.2939 13.0636 56.4116 13.4175C56.5294 13.7715 56.5718 14.1461 56.5363 14.5175C56.5725 14.8892 56.5305 15.2643 56.4131 15.6189C56.2957 15.9734 56.1053 16.2994 55.8544 16.576C55.6034 16.8526 55.2974 17.0736 54.9559 17.2249C54.6144 17.3761 54.2451 17.4542 53.8716 17.4542C53.4982 17.4542 53.1288 17.3761 52.7874 17.2249C52.4459 17.0736 52.1398 16.8526 51.8889 16.576C51.6379 16.2994 51.4476 15.9734 51.3302 15.6189C51.2127 15.2643 51.1707 14.8892 51.2069 14.5175ZM55.3893 14.5175C55.3893 13.2927 54.8391 12.5764 53.8735 12.5764C52.9042 12.5764 52.3589 13.2927 52.3589 14.5175C52.3589 15.7521 52.9042 16.4628 53.8735 16.4628C54.8391 16.4628 55.3893 15.7472 55.3893 14.5175H55.3893Z" fill="white"/>
<path d="M63.6205 17.3453H62.4637L61.2959 13.1837H61.2077L60.0447 17.3453H58.8989L57.3414 11.6948H58.4725L59.4847 16.0064H59.568L60.7297 11.6948H61.7995L62.9612 16.0064H63.0495L64.0568 11.6948H65.1719L63.6205 17.3453Z" fill="white"/>
<path d="M66.4819 11.6947H67.5553V12.5923H67.6387C67.78 12.2699 68.0185 11.9997 68.3207 11.8192C68.623 11.6388 68.974 11.5571 69.3249 11.5856C69.5998 11.565 69.8759 11.6064 70.1326 11.7069C70.3893 11.8074 70.6202 11.9644 70.808 12.1663C70.9958 12.3681 71.1358 12.6096 71.2177 12.8729C71.2995 13.1362 71.321 13.4145 71.2806 13.6872V17.3451H70.1655V13.9673C70.1655 13.0592 69.7709 12.6077 68.9462 12.6077C68.7595 12.599 68.5732 12.6307 68.4 12.7008C68.2267 12.7708 68.0707 12.8775 67.9425 13.0135C67.8144 13.1495 67.7172 13.3117 67.6575 13.4887C67.5979 13.6658 67.5772 13.8537 67.597 14.0396V17.3452H66.4819L66.4819 11.6947Z" fill="white"/>
<path d="M73.0575 9.48901H74.1727V17.3452H73.0575V9.48901Z" fill="white"/>
<path d="M75.7228 14.5176C75.6873 14.1462 75.7298 13.7715 75.8476 13.4176C75.9654 13.0636 76.1558 12.7382 76.4068 12.4621C76.6577 12.1861 76.9635 11.9655 77.3047 11.8146C77.6458 11.6637 78.0148 11.5857 78.3878 11.5857C78.7609 11.5857 79.1298 11.6637 79.4709 11.8146C79.8121 11.9655 80.1179 12.1861 80.3689 12.4621C80.6198 12.7382 80.8102 13.0636 80.928 13.4176C81.0458 13.7715 81.0883 14.1462 81.0528 14.5176C81.089 14.8893 81.0469 15.2645 80.9295 15.619C80.812 15.9735 80.6216 16.2995 80.3707 16.5761C80.1197 16.8527 79.8136 17.0737 79.4721 17.2249C79.1306 17.3762 78.7613 17.4543 78.3878 17.4543C78.0143 17.4543 77.645 17.3762 77.3035 17.2249C76.962 17.0737 76.6559 16.8527 76.405 16.5761C76.154 16.2995 75.9636 15.9735 75.8462 15.619C75.7287 15.2645 75.6867 14.8893 75.7228 14.5176ZM79.9052 14.5176C79.9052 13.2928 79.355 12.5765 78.3893 12.5765C77.42 12.5765 76.8748 13.2928 76.8748 14.5176C76.8748 15.7522 77.4201 16.4629 78.3893 16.4629C79.355 16.4629 79.9052 15.7473 79.9052 14.5176H79.9052Z" fill="white"/>
<path d="M82.2268 15.7472C82.2268 14.7301 82.9841 14.1438 84.3284 14.0604L85.8589 13.9722V13.4845C85.8589 12.8877 85.4644 12.5507 84.7021 12.5507C84.0796 12.5507 83.6483 12.7793 83.5245 13.1787H82.4449C82.5589 12.2082 83.4718 11.5857 84.7536 11.5857C86.1702 11.5857 86.9692 12.2909 86.9692 13.4845V17.3452H85.8957V16.5511H85.8075C85.6284 16.836 85.3769 17.0682 85.0787 17.224C84.7806 17.3799 84.4464 17.4538 84.1103 17.4383C83.8731 17.463 83.6333 17.4377 83.4065 17.364C83.1797 17.2903 82.9708 17.17 82.7933 17.0106C82.6159 16.8513 82.4738 16.6566 82.3762 16.439C82.2786 16.2214 82.2277 15.9857 82.2268 15.7472ZM85.8589 15.2644V14.792L84.4791 14.8802C83.701 14.9323 83.348 15.197 83.348 15.6951C83.348 16.2037 83.7892 16.4996 84.3958 16.4996C84.5736 16.5176 84.7531 16.4997 84.9238 16.4469C85.0944 16.394 85.2527 16.3074 85.3892 16.1922C85.5258 16.0769 85.6377 15.9354 85.7184 15.776C85.7991 15.6166 85.8469 15.4427 85.8589 15.2644Z" fill="white"/>
<path d="M88.4348 14.5176C88.4348 12.7321 89.3526 11.6011 90.7802 11.6011C91.1334 11.5848 91.4838 11.6694 91.7907 11.8449C92.0975 12.0205 92.348 12.2797 92.513 12.5924H92.5963V9.48901H93.7115V17.3452H92.6429V16.4525H92.5547C92.377 16.7631 92.1177 17.0191 91.8049 17.1929C91.4922 17.3666 91.1378 17.4515 90.7802 17.4383C89.3428 17.4384 88.4348 16.3073 88.4348 14.5176ZM89.5867 14.5176C89.5867 15.716 90.1516 16.4372 91.0964 16.4372C92.0363 16.4372 92.6172 15.7056 92.6172 14.5225C92.6172 13.3448 92.0302 12.6028 91.0964 12.6028C90.1577 12.6028 89.5867 13.3289 89.5867 14.5176H89.5867Z" fill="white"/>
<path d="M98.3252 14.5175C98.2897 14.1461 98.3321 13.7715 98.4499 13.4175C98.5677 13.0636 98.7581 12.7381 99.009 12.4621C99.2599 12.1861 99.5657 11.9655 99.9068 11.8146C100.248 11.6637 100.617 11.5857 100.99 11.5857C101.363 11.5857 101.732 11.6637 102.073 11.8146C102.414 11.9655 102.72 12.1861 102.971 12.4621C103.222 12.7381 103.412 13.0636 103.53 13.4175C103.648 13.7715 103.69 14.1461 103.655 14.5175C103.691 14.8892 103.649 15.2643 103.531 15.6189C103.414 15.9734 103.224 16.2994 102.973 16.576C102.722 16.8526 102.416 17.0736 102.074 17.2249C101.733 17.3761 101.363 17.4542 100.99 17.4542C100.616 17.4542 100.247 17.3761 99.9056 17.2249C99.5641 17.0736 99.2581 16.8526 99.0071 16.576C98.7562 16.2994 98.5659 15.9734 98.4484 15.6189C98.331 15.2643 98.289 14.8892 98.3252 14.5175ZM102.508 14.5175C102.508 13.2927 101.957 12.5764 100.992 12.5764C100.022 12.5764 99.4771 13.2927 99.4771 14.5175C99.4771 15.7521 100.022 16.4628 100.992 16.4628C101.957 16.4628 102.508 15.7472 102.508 14.5175Z" fill="white"/>
<path d="M105.151 11.6947H106.224V12.5923H106.308C106.449 12.2699 106.687 11.9997 106.99 11.8192C107.292 11.6388 107.643 11.5571 107.994 11.5856C108.269 11.565 108.545 11.6064 108.802 11.7069C109.058 11.8074 109.289 11.9644 109.477 12.1663C109.665 12.3681 109.805 12.6096 109.887 12.8729C109.968 13.1362 109.99 13.4145 109.95 13.6872V17.3451H108.834V13.9673C108.834 13.0592 108.44 12.6077 107.615 12.6077C107.428 12.599 107.242 12.6307 107.069 12.7008C106.896 12.7708 106.74 12.8775 106.611 13.0135C106.483 13.1495 106.386 13.3117 106.326 13.4887C106.267 13.6658 106.246 13.8537 106.266 14.0396V17.3452H105.151V11.6947Z" fill="white"/>
<path d="M116.251 10.2881V11.7206H117.475V12.6599H116.251V15.5654C116.251 16.1573 116.495 16.4164 117.05 16.4164C117.192 16.416 117.334 16.4074 117.475 16.3907V17.3196C117.275 17.3554 117.072 17.3745 116.868 17.3766C115.628 17.3766 115.134 16.9403 115.134 15.8509V12.6599H114.237V11.7206H115.134V10.2881H116.251Z" fill="white"/>
<path d="M118.998 9.48901H120.103V12.6028H120.192C120.34 12.2774 120.585 12.0056 120.893 11.8245C121.202 11.6434 121.558 11.5617 121.915 11.5906C122.188 11.5757 122.462 11.6214 122.715 11.7244C122.969 11.8273 123.197 11.985 123.383 12.1862C123.569 12.3874 123.708 12.6271 123.791 12.8883C123.873 13.1495 123.897 13.4257 123.861 13.6971V17.3452H122.744V13.9722C122.744 13.0697 122.324 12.6126 121.536 12.6126C121.344 12.5969 121.152 12.6232 120.971 12.6898C120.791 12.7564 120.627 12.8616 120.492 12.998C120.356 13.1345 120.252 13.2989 120.187 13.4798C120.121 13.6606 120.096 13.8536 120.113 14.0451V17.3452H118.998L118.998 9.48901Z" fill="white"/>
<path d="M130.363 15.8196C130.211 16.336 129.883 16.7827 129.435 17.0816C128.988 17.3804 128.449 17.5124 127.914 17.4543C127.542 17.4642 127.172 17.3929 126.83 17.2454C126.488 17.0979 126.182 16.8778 125.934 16.6003C125.686 16.3228 125.501 15.9946 125.392 15.6384C125.283 15.2823 125.253 14.9067 125.304 14.5378C125.255 14.1678 125.285 13.7914 125.394 13.4342C125.502 13.077 125.686 12.7473 125.933 12.4674C126.18 12.1874 126.485 11.9639 126.825 11.8118C127.166 11.6597 127.536 11.5826 127.909 11.5858C129.482 11.5858 130.43 12.6599 130.43 14.4343V14.8234H126.44V14.8859C126.423 15.0932 126.449 15.3019 126.517 15.4986C126.585 15.6953 126.693 15.8757 126.835 16.0281C126.976 16.1805 127.148 16.3016 127.339 16.3837C127.531 16.4657 127.737 16.5069 127.945 16.5046C128.212 16.5366 128.482 16.4886 128.721 16.3666C128.961 16.2446 129.158 16.0542 129.289 15.8196L130.363 15.8196ZM126.44 13.9986H129.294C129.308 13.809 129.282 13.6185 129.218 13.4394C129.155 13.2603 129.054 13.0966 128.923 12.9588C128.792 12.8209 128.633 12.712 128.458 12.639C128.282 12.566 128.093 12.5305 127.903 12.5349C127.71 12.5325 127.519 12.5687 127.34 12.6414C127.162 12.7141 126.999 12.8218 126.863 12.9583C126.727 13.0947 126.619 13.257 126.546 13.4357C126.474 13.6144 126.438 13.8058 126.44 13.9986H126.44Z" fill="white"/>
</svg>
