<svg width="160" height="48" viewBox="0 0 160 48" fill="none" xmlns="http://www.w3.org/2000/svg">
<path fill-rule="evenodd" clip-rule="evenodd" d="M154.072 48H5.92811C2.66088 48 0 45.2948 0 42V6C0 2.69327 2.66088 0 5.92811 0H154.072C157.336 0 160 2.69327 160 6V42C160 45.2948 157.336 48 154.072 48Z" fill="black"/>
<path d="M85.6936 15.8783C84.6073 15.8783 83.6916 15.4982 82.9674 14.7501C82.2492 14.0229 81.8482 13.0204 81.8662 11.997C81.8662 10.9047 82.2372 9.98 82.9674 9.24683C83.6886 8.4987 84.6043 8.11865 85.6906 8.11865C86.7649 8.11865 87.6806 8.4987 88.4168 9.24683C89.1469 10.0039 89.518 10.9286 89.518 11.997C89.506 13.0922 89.135 14.0169 88.4168 14.7471C87.6956 15.5012 86.7799 15.8783 85.6936 15.8783ZM53.3716 15.8783C52.3092 15.8783 51.3875 15.5042 50.6334 14.765C49.8853 14.0289 49.5052 13.0982 49.5052 11.9999C49.5052 10.9017 49.8853 9.97102 50.6334 9.23486C51.3726 8.49571 52.2943 8.12165 53.3716 8.12165C53.8982 8.12165 54.41 8.22638 54.9007 8.43885C55.3825 8.64534 55.7745 8.92663 56.0648 9.27077L56.1366 9.35756L55.3257 10.1536L55.2419 10.0548C54.784 9.51017 54.1706 9.24384 53.3596 9.24384C52.6354 9.24384 52.004 9.5012 51.4833 10.0099C50.9596 10.5216 50.6933 11.192 50.6933 12.0029C50.6933 12.8139 50.9596 13.4842 51.4833 13.996C52.004 14.5047 52.6354 14.762 53.3596 14.762C54.1317 14.762 54.781 14.5047 55.2868 13.996C55.586 13.6967 55.7715 13.2778 55.8374 12.7481H53.2369V11.6289H56.9536L56.9685 11.7306C56.9955 11.9192 57.0224 12.1137 57.0224 12.2932C57.0224 13.3256 56.7112 14.1605 56.0947 14.777C55.3945 15.5072 54.4788 15.8783 53.3716 15.8783ZM96.3469 15.7196H95.2008L91.6906 10.1027L91.7205 11.1142V15.7167H90.5744V8.28025H91.8821L91.918 8.33711L95.2187 13.6279L95.1888 12.6194V8.28025H96.3469V15.7196V15.7196ZM77.0812 15.7196H75.9201V9.39945H73.9061V8.28025H79.0921V9.39945H77.0782V15.7196H77.0812ZM72.9605 15.7196H71.8024V8.28025H72.9605V15.7196ZM66.4518 15.7196H65.2937V9.39945H63.2797V8.28025H68.4657V9.39945H66.4518V15.7196ZM62.5466 15.7077H58.1057V8.28025H62.5466V9.39945H59.2668V11.4403H62.2264V12.5476H59.2668V14.5885H62.5466V15.7077ZM83.8173 13.981C84.335 14.4987 84.9634 14.7591 85.6936 14.7591C86.4447 14.7591 87.0582 14.5047 87.5699 13.981C88.0786 13.4723 88.336 12.8049 88.336 11.9999C88.336 11.195 88.0786 10.5246 87.5729 10.0189C87.0552 9.5012 86.4238 9.24085 85.6966 9.24085C84.9455 9.24085 84.332 9.49521 83.8233 10.0189C83.3145 10.5276 83.0572 11.195 83.0572 11.9999C83.0572 12.8049 83.3116 13.4753 83.8173 13.981Z" fill="white"/>
<path fill-rule="evenodd" clip-rule="evenodd" d="M81.7585 26.1068C78.9306 26.1068 76.6383 28.2524 76.6383 31.212C76.6383 34.1447 78.9456 36.3173 81.7585 36.3173C84.5865 36.3173 86.8787 34.1567 86.8787 31.212C86.8787 28.2524 84.5865 26.1068 81.7585 26.1068ZM81.7585 34.2943C80.2114 34.2943 78.8797 33.0135 78.8797 31.2001C78.8797 29.3597 80.2144 28.1058 81.7585 28.1058C83.3057 28.1058 84.6373 29.3597 84.6373 31.2001C84.6403 33.0255 83.3057 34.2943 81.7585 34.2943ZM70.5874 26.1068C67.7595 26.1068 65.4672 28.2524 65.4672 31.212C65.4672 34.1447 67.7745 36.3173 70.5874 36.3173C73.4154 36.3173 75.7076 34.1567 75.7076 31.212C75.7076 28.2524 73.4124 26.1068 70.5874 26.1068ZM70.5874 34.2943C69.0403 34.2943 67.7086 33.0135 67.7086 31.2001C67.7086 29.3597 69.0433 28.1058 70.5874 28.1058C72.1346 28.1058 73.4662 29.3597 73.4662 31.2001C73.4662 33.0255 72.1346 34.2943 70.5874 34.2943ZM57.2946 27.6659V29.8265H62.4807C62.3221 31.0385 61.9211 31.9332 61.3076 32.5467C60.5475 33.3068 59.3745 34.1327 57.3066 34.1327C54.1196 34.1327 51.6268 31.5592 51.6268 28.3721C51.6268 25.1851 54.1196 22.6115 57.3066 22.6115C59.0273 22.6115 60.2812 23.2908 61.2119 24.1587L62.744 22.6265C61.4513 21.3876 59.7306 20.439 57.3186 20.439C52.9465 20.439 49.2777 24.0001 49.2777 28.3602C49.2777 32.7322 52.9435 36.2814 57.3186 36.2814C59.6797 36.2814 61.4513 35.5093 62.8518 34.0549C64.2792 32.6275 64.7311 30.6135 64.7311 28.9886C64.7311 28.4829 64.6922 28.028 64.6114 27.642H57.2917C57.2946 27.639 57.2946 27.6659 57.2946 27.6659ZM111.666 29.3477C111.238 28.2016 109.945 26.0948 107.294 26.0948C104.666 26.0948 102.482 28.1627 102.482 31.2001C102.482 34.0669 104.642 36.3053 107.548 36.3053C109.882 36.3053 111.241 34.8779 111.8 34.04L110.068 32.8789C109.493 33.7317 108.694 34.2913 107.56 34.2913C106.414 34.2913 105.612 33.7706 105.079 32.7442L111.905 29.9163C111.905 29.9193 111.666 29.3477 111.666 29.3477ZM104.705 31.0534C104.651 29.0814 106.237 28.0789 107.372 28.0789C108.266 28.0789 109.011 28.5188 109.266 29.1592L104.705 31.0534ZM99.16 36.0001H101.401V21.0016H99.16V36.0001ZM95.4792 27.241H95.3984C94.8927 26.6395 93.9321 26.0948 92.7052 26.0948C90.1585 26.0948 87.8124 28.3362 87.8124 31.215C87.8124 34.0819 90.1466 36.2963 92.7052 36.2963C93.9171 36.2963 94.8927 35.7487 95.3984 35.1352H95.4792V35.8684C95.4792 37.8165 94.4378 38.8669 92.759 38.8669C91.3855 38.8669 90.5326 37.8794 90.1855 37.0534L88.2373 37.8674C88.7969 39.214 90.2902 40.8809 92.756 40.8809C95.3835 40.8809 97.6099 39.3337 97.6099 35.5602V26.4001H95.4912V27.241C95.4942 27.241 95.4792 27.241 95.4792 27.241ZM92.9057 34.2943C91.3585 34.2943 90.0658 33.0016 90.0658 31.215C90.0658 29.4135 91.3585 28.1088 92.9057 28.1088C94.4378 28.1088 95.6259 29.4285 95.6259 31.215C95.6408 33.0016 94.4408 34.2943 92.9057 34.2943ZM122.161 21.0016H116.801V36.0001H119.042V30.3203H122.164C124.644 30.3203 127.083 28.5218 127.083 25.6669C127.083 22.812 124.653 21.0016 122.161 21.0016ZM122.226 28.2255H119.039V23.0784H122.226C123.905 23.0784 124.854 24.4639 124.854 25.6519C124.854 26.828 123.893 28.2255 122.226 28.2255ZM136.067 26.0799C134.439 26.0799 132.76 26.8011 132.066 28.3721L134.053 29.1981C134.481 28.3721 135.265 28.0908 136.094 28.0908C137.255 28.0908 138.428 28.7851 138.455 30.024V30.1826C138.054 29.9552 137.174 29.608 136.121 29.608C133.975 29.608 131.799 30.7811 131.799 32.9806C131.799 34.9946 133.559 36.2873 135.519 36.2873C137.024 36.2873 137.853 35.608 138.371 34.821H138.452V35.9821H140.612V30.2365C140.612 27.5612 138.625 26.0799 136.067 26.0799ZM135.786 34.2943C135.052 34.2943 134.026 33.9352 134.026 33.0135C134.026 31.8524 135.307 31.4125 136.399 31.4125C137.387 31.4125 137.853 31.625 138.44 31.9183C138.278 33.2649 137.141 34.2824 135.786 34.2943ZM148.495 26.4001L145.921 32.9058H145.84L143.174 26.4001H140.762L144.763 35.4943L142.483 40.5487H144.817L150.973 26.4001H148.495ZM128.319 36.0001H130.561V21.0016H128.319V36.0001Z" fill="white"/>
<path fill-rule="evenodd" clip-rule="evenodd" d="M12.5207 9.04052C12.1735 9.41458 11.973 9.98615 11.973 10.7343V37.2689C11.973 38.0171 12.1735 38.5886 12.5326 38.9477L12.6254 39.0285L27.4923 24.1617V23.8295L12.6134 8.95972L12.5207 9.04052Z" fill="url(#paint0_linear)"/>
<path fill-rule="evenodd" clip-rule="evenodd" d="M32.4389 29.1323L27.4803 24.1737V23.8265L32.4389 18.8679L32.5466 18.9338L38.4119 22.2674C40.0907 23.2131 40.0907 24.7752 38.4119 25.7328L32.5466 29.0664L32.4389 29.1323Z" fill="url(#paint1_linear)"/>
<path fill-rule="evenodd" clip-rule="evenodd" d="M32.5467 29.0663L27.4804 24L12.5207 38.9596C13.0684 39.5461 13.9871 39.612 15.0135 39.0404L32.5467 29.0663Z" fill="url(#paint2_linear)"/>
<path fill-rule="evenodd" clip-rule="evenodd" d="M32.5467 18.9337L15.0135 8.97458C13.9871 8.38805 13.0654 8.46884 12.5207 9.05538L27.4804 24L32.5467 18.9337Z" fill="url(#paint3_linear)"/>
<path opacity="0.2" fill-rule="evenodd" clip-rule="evenodd" d="M32.4389 28.9587L15.0254 38.852C14.0529 39.4116 13.185 39.3727 12.6254 38.8639L12.5327 38.9567L12.6254 39.0375C13.185 39.5432 14.0529 39.5851 15.0254 39.0255L32.5586 29.0665L32.4389 28.9587Z" fill="#191919"/>
<path opacity="0.12" fill-rule="evenodd" clip-rule="evenodd" d="M38.412 25.5591L32.4238 28.9586L32.5316 29.0663L38.397 25.7327C39.2379 25.2539 39.6509 24.6254 39.6509 24C39.6 24.5746 39.1721 25.1192 38.412 25.5591Z" fill="#191919"/>
<path opacity="0.25" fill-rule="evenodd" clip-rule="evenodd" d="M15.0134 9.148L38.412 22.4408C39.1721 22.8687 39.6 23.4283 39.6659 23.9999C39.6659 23.3744 39.2529 22.746 38.412 22.2672L15.0134 8.97444C13.3346 8.01384 11.973 8.81583 11.973 10.734V10.9076C11.973 8.98641 13.3346 8.19937 15.0134 9.148Z" fill="white"/>
<defs>
<linearGradient id="paint0_linear" x1="26.1588" y1="10.448" x2="2.34457" y2="16.7933" gradientUnits="userSpaceOnUse">
<stop stop-color="#00A0FF"/>
<stop offset="0.00657" stop-color="#00A1FF"/>
<stop offset="0.2601" stop-color="#00BEFF"/>
<stop offset="0.5122" stop-color="#00D2FF"/>
<stop offset="0.7604" stop-color="#00DFFF"/>
<stop offset="1" stop-color="#00E3FF"/>
</linearGradient>
<linearGradient id="paint1_linear" x1="40.6012" y1="24.0001" x2="11.5651" y2="24.0001" gradientUnits="userSpaceOnUse">
<stop stop-color="#FFE000"/>
<stop offset="0.4087" stop-color="#FFBD00"/>
<stop offset="0.7754" stop-color="#FFA500"/>
<stop offset="1" stop-color="#FF9C00"/>
</linearGradient>
<linearGradient id="paint2_linear" x1="29.7918" y1="26.7568" x2="10.674" y2="58.9338" gradientUnits="userSpaceOnUse">
<stop stop-color="#FF3A44"/>
<stop offset="1" stop-color="#C31162"/>
</linearGradient>
<linearGradient id="paint3_linear" x1="8.75372" y1="0.214566" x2="17.2829" y2="14.5853" gradientUnits="userSpaceOnUse">
<stop stop-color="#32A071"/>
<stop offset="0.0685" stop-color="#2DA771"/>
<stop offset="0.4762" stop-color="#15CF74"/>
<stop offset="0.8009" stop-color="#06E775"/>
<stop offset="1" stop-color="#00F076"/>
</linearGradient>
</defs>
</svg>
